<?xml version="1.0" encoding="utf-8"?>
<?xml-stylesheet type="text/xsl" href="rss1.xsl"?>
<rss version="2.0" xmlns:atom="http://www.w3.org/2005/Atom" xmlns:content="http://purl.org/rss/1.0/modules/content/" xmlns:dc="http://purl.org/dc/elements/1.1/" xmlns:media="http://search.yahoo.com/mrss/">
<channel>
 <title>Getty</title>
 <link>http://www.gettyimg.com/</link>
 <atom:link href="http://www.gettyimg.com/" rel="self" type="application/rss+xml" />

 
                <item>
                <title><![CDATA[【Apple Music】WEB-RiP - Linkin Park - What I've Done [Apple Music WEB-DL 1080p HD]]]></title>
                <link><![CDATA[https://sharemania.us/threads/linkin-park-what-ive-done-apple-music-web-dl-1080p-hd.243454/]]></link>
                <description><![CDATA[<article>
<blockquote class="messageText SelectQuoteContainer ugc baseHtml">
<span style="font-size: 22px"><b>Linkin Park - What I've Done [Apple Music WEB-DL 1080p HD]</b></span><br>
<br>
<img src="https://imgur.com/Fao1uqm.jpg" class="bbCodeImage LbImage" alt="[​IMG]" data-url="https://imgur.com/Fao1uqm.jpg" style=""><br>
<br>
<div class="bbCodeBlock bbCodeCode">
<div class="type">Code:</div>
<pre>General
Format                         : MPEG-4
Codec ID                       : M4V  (isom/iso4/M4V /mp42)
File size                      : 169 MiB
Duration                       : 3 min 27 s
Overall bit rate mode          : Variable
Overall bit rate               : 6 830 kb/s
Movie name                     : What I've Done
Performer                      : LINKIN PARK
Genre                          : Alternative
ContentType                    : Music Video
Recorded date                  : UTC 2007-04-02 07:00:00
Encoded date                   : UTC 2024-04-04 13:30:04
Tagged date                    : UTC 2024-04-04 13:30:04
Copyright                      : ℗ 2007 Warner Records Inc.
Cover                          : Yes
Rating                         : None
GenreID                        : 1620
AlbumTitleID                   : 148662
AppleStoreCatalogID            : 281890523

Video
ID                             : 2
Format                         : AVC
Format/Info                    : Advanced Video Codec
Format profile                 : High@L4
Format settings                : CABAC / 4 Ref Frames
Format settings, CABAC         : Yes
Format settings, Reference fra : 4 frames
Codec ID                       : avc1
Codec ID/Info                  : Advanced Video Coding
Duration                       : 3 min 27 s
Bit rate                       : 6 555 kb/s
Maximum bit rate               : 14.8 Mb/s
Width                          : 1 920 pixels
Height                         : 886 pixels
Display aspect ratio           : 2.2:1
Frame rate mode                : Constant
Frame rate                     : 23.976 (24000/1001) FPS
Color space                    : YUV
Chroma subsampling             : 4:2:0
Bit depth                      : 8 bits
Scan type                      : Progressive
Bits/(Pixel*Frame)             : 0.161
Stream size                    : 162 MiB (96%)
Title                          : Core Media Video
Encoded date                   : UTC 2024-04-04 13:30:20
Tagged date                    : UTC 2024-04-29 04:36:25
Color range                    : Limited
Color primaries                : BT.709
Transfer characteristics       : BT.709
Matrix coefficients            : BT.709
Codec configuration box        : avcC

Audio
ID                             : 1
Format                         : AAC LC
Format/Info                    : Advanced Audio Codec Low Complexity
Codec ID                       : mp4a-40-2
Duration                       : 3 min 27 s
Duration_LastFrame             : -2 ms
Bit rate mode                  : Variable
Bit rate                       : 265 kb/s
Maximum bit rate               : 352 kb/s
Channel(s)                     : 2 channels
Channel layout                 : L R
Sampling rate                  : 48.0 kHz
Frame rate                     : 46.875 FPS (1024 SPF)
Compression mode               : Lossy
Stream size                    : 6.46 MiB (4%)
Title                          : Core Media Audio
Encoded date                   : UTC 2024-04-04 13:30:04
Tagged date                    : UTC 2024-04-29 04:36:25
</pre>
</div>
<div class="bbCodeBlock bbCodeVfcHH HiddenContent">
<div class="attribution type">Hidden Content:</div>
<blockquote>You must reply before you can see the hidden data contained here.</blockquote>
</div>
<div class="messageTextEndMarker">&nbsp;</div>
</blockquote>
</article>]]></description>
                <author><![CDATA[Ron001]]></author>
                </item>

                
                <item>
                <title><![CDATA[【Albums (lossless)】FLAC - The Beatles Love 2006 Qobuz WEB FLAC 16 bits 44.1 kHz-C.A.A]]></title>
                <link><![CDATA[https://sharemania.us/threads/the-beatles-love-2006-qobuz-web-flac-16-bits-44-1-khz-c-a-a.243453/]]></link>
                <description><![CDATA[<article>
<blockquote class="messageText SelectQuoteContainer ugc baseHtml">
<div style="text-align: center"><img src="https://i.ibb.co/xsZY6cy/The-Beatles-Love-2006-Qobuz-WEB-FLAC-16-bits-44-1k-Hz-C-A-A.jpg" class="bbCodeImage LbImage" alt="[​IMG]" data-url="https://i.ibb.co/xsZY6cy/The-Beatles-Love-2006-Qobuz-WEB-FLAC-16-bits-44-1k-Hz-C-A-A.jpg" style=""><br>
<br>
<span data-s9e-mediaembed="youtube" style="display:inline-block;width:100%;max-width:640px"><span style="display:block;overflow:hidden;position:relative;padding-bottom:56.25%"><iframe allowfullscreen="" loading="lazy" scrolling="no" style="background:url(https://i.ytimg.com/vi/VJDJs9dumZI/hqdefault.jpg) 50% 50% / cover;border:0;height:100%;left:0;position:absolute;width:100%" src="https://www.youtube.com/embed/VJDJs9dumZI"></iframe></span></span>​</div><br>
01 - Because (Love Version)<br>
02 - Get Back (Love Version)<br>
03 - Glass Onion (Love Version)<br>
04 - Eleanor Rigby Julia (Love Version)<br>
05 - I Am The Walrus (Love Version)<br>
06 - I Want To Hold Your Hand (Love Version)<br>
07 - Drive My Car The Word What You're Doing (Love Version)<br>
08 - Gnik Nus (Love Version)<br>
09 - Something Blue Jay Way (Love Version)<br>
10 - Being For The Benefit Of Mr Kite! I Want You (She's So Heavy) Helter Skelter (Love Version)<br>
11 - Help! (Love Version)<br>
12 - Blackbird Yesterday (Love Version)<br>
13 - Strawberry Fields Forever (Love Version)<br>
14 - Within You Without You Tomorrow Never Knows (Love Version)<br>
15 - Lucy In The Sky With Diamonds (Love Version)<br>
16 - Octopus's Garden (Love Version)<br>
17 - Lady Madonna (Love Version)<br>
18 - Here Comes The Sun The Inner Light (Love Version)<br>
19 - Come Together Dear Prudence Cry Baby Cry (Love Version)<br>
20 - Revolution (Love Version)<br>
21 - Back In The U.S.S.R (Love Version)<br>
22 - While My Guitar Gently Weeps (Love Version)<br>
23 - A Day In The Life (Love Version)<br>
24 - Hey Jude (Love Version)<br>
25 - Sgt. Pepper's Lonely Hearts Club Band (Reprise Love Version)<br>
26 - All You Need Is Love (Love Version)<br>
27 - The Fool On The Hill (Love Version)<br>
28 - Girl (Love Version)<br>
<br>
<div class="bbCodeBlock bbCodeVfcHH HiddenContent">
<div class="attribution type">Hidden Content:</div>
<blockquote>You must either reply or click 'Like' to see the hidden information contained here.</blockquote>
</div>
<div class="messageTextEndMarker">&nbsp;</div>
</blockquote>
</article>]]></description>
                <author><![CDATA[-C.A.A]]></author>
                </item>

                </channel></rss>